{"title":"Chatroom 2010 R5 XviD Ac3 Feel-Free","uid":5931817,"size":1179339198,"categoryP":"video","categoryS":"movies","magnet":"?xt=urn:btih:b8c7b761f614b872e73f388443543b5c784374e6&amp;dn=Chatroom+2010+R5+XviD+Ac3+Feel-Free&amp;tr=udp%3A%2F%2Ftracker.openbittorrent.com%3A80&amp;tr=udp%3A%2F%2Fopen.demonii.com%3A1337&amp;tr=udp%3A%2F%2Ftracker.coppersurfer.tk%3A6969&amp;tr=udp%3A%2F%2Fexodus.desync.com%3A6969","seeders":0,"leechers":1,"uploader":"neon","files":8,"time":1288805910,"description":"Genre:Drama | Thriller\nLanguage:English\nIMDb:http://www.imdb.com/title/tt1319704/\nSource:DVD9 RUS\n\nGeneral\nComplete name :Chatroom 2010 R5 XviD Ac3 Feel-Free\nFormat : AVI\nFormat/Info : Audio Video Interleave\nFile size : 1.10 GiB\nDuration : 1h 33mn\nOverall bit rate : 1 679 Kbps\nVideo #0\nCodec ID : XVID\nCodec ID/Hint : XviD\nDuration : 1h 33mn\nBit rate : 1 221 Kbps\nWidth : 652 pixels\nHeight : 352 pixels\nDisplay aspect ratio : 1.852\nFrame rate : 25.000 fps\nResolution : 24 bits\nColorimetry : 4:2:0\nScan type : Progressive\nBits/(Pixel*Frame) : 0.213\nStream size : 817 MiB (73%)\nWriting library : XviD 1.2.1 (UTC 2008-12-04)\nAudio #1\nID : 1\nFormat : AC-3\nFormat/Info : Audio Coding 3\nCodec ID : 2000\nDuration : 1h 33mn\nBit rate mode : Constant\nBit rate : 448 Kbps\nChannel(s) : 6 channels\nChannel positions : Front: L C R, Surround: L R, LFE\nSampling rate : 48.0 KHz\nStream size : 300 MiB (27%)\nAlignment : Split accross interleaves\nInterleave, duration : 40 ms (1.00 video frame)\nInterleave, preload duration : 500 ms\n\nPlot:\nA group of teenagers encourage each other's bad behavior.\n\n","torrent":{"xt":"urn:btih:b8c7b761f614b872e73f388443543b5c784374e6","amp;dn":"Chatroom+2010+R5+XviD+Ac3+Feel-Free","amp;tr":["udp%3A%2F%2Ftracker.openbittorrent.com%3A80","udp%3A%2F%2Fopen.demonii.com%3A1337","udp%3A%2F%2Ftracker.coppersurfer.tk%3A6969","udp%3A%2F%2Fexodus.desync.com%3A6969"],"infoHash":"b8c7b761f614b872e73f388443543b5c784374e6","infoHashBuffer":{"type":"Buffer","data":[184,199,183,97,246,20,184,114,231,63,56,132,67,84,59,92,120,67,116,230]},"announce":[],"urlList":[]}}